# Blender 4.4.3
# www.blender.org
mtllib anarchya.mtl
o Circle
v -0.197016 -0.003780 1.223488
v -0.669502 -0.035025 -1.193804
v 1.055617 0.009176 -1.308284
v 1.205724 -0.026138 0.223786
v -1.077662 0.027326 -0.206596
v -0.239969 -0.006621 1.003734
v -0.282922 -0.009461 0.783980
v -0.325876 -0.012302 0.564226
v -0.368829 -0.015142 0.344472
v -0.411782 -0.017982 0.124719
v -0.454828 -0.004039 -0.092127
v -0.497689 -0.023663 -0.314789
v -0.540642 -0.026504 -0.534543
v -0.583596 -0.029344 -0.754297
v -0.626549 -0.032185 -0.974050
v 0.998143 -0.021277 0.184661
v 0.790563 -0.016417 0.145535
v 0.582982 -0.011557 0.106409
v 0.373882 -0.002294 0.069983
v 0.167821 -0.001836 0.028158
v -0.039759 0.003024 -0.010968
v -0.247340 0.007884 -0.050093
v -0.662501 0.017605 -0.128345
v -0.870081 0.022465 -0.167470
v 0.941741 0.007998 -1.078123
v 0.827865 0.006820 -0.847962
v 0.713990 0.005642 -0.617801
v 0.600114 0.004464 -0.387640
v 0.486239 0.003287 -0.157479
v 0.258487 0.000931 0.302843
v 0.144611 -0.000247 0.533004
v 0.030736 -0.001425 0.763166
v -0.083140 -0.002602 0.993327
v 1.019557 -0.001773 -0.280412
v 0.947714 -0.001736 -0.476737
v 0.836624 -0.001715 -0.653835
v 0.691140 -0.001709 -0.803966
v 0.517622 -0.001720 -0.920568
v 0.323652 -0.001746 -0.998546
v 0.117709 -0.001787 -1.034492
v -0.091208 -0.001840 -1.026834
v -0.293967 -0.001904 -0.975907
v -0.481707 -0.001975 -0.883936
v -0.646223 -0.002051 -0.754943
v -0.780324 -0.002128 -0.594563
v -0.878150 -0.002203 -0.409807
v -0.935425 -0.002272 -0.208749
v -0.949647 -0.002332 -0.000176
v -0.920193 -0.002382 0.206795
v -0.848351 -0.002418 0.403120
v -0.737260 -0.002440 0.580218
v -0.591777 -0.002445 0.730349
v -0.418258 -0.002434 0.846952
v -0.224289 -0.002408 0.924930
v -0.018345 -0.002368 0.960875
v 0.190572 -0.002314 0.953217
v 0.393331 -0.002251 0.902290
v 0.581071 -0.002179 0.810320
v 0.745586 -0.002103 0.681326
v 0.879688 -0.002027 0.520947
v 0.977514 -0.001952 0.336190
v 1.034789 -0.001883 0.135132
v 1.049011 -0.001822 -0.073440
vn 0.0218 0.9997 0.0083
vn 0.0222 0.9997 0.0066
vn -0.0208 -0.9997 -0.0136
vn 0.1893 0.9807 -0.0497
vn -0.0261 0.9996 -0.0078
vn 0.0046 0.9999 -0.0116
vn 0.0038 -0.9897 -0.1429
vn -0.0137 0.9963 -0.0852
vn 0.0261 -0.9996 0.0078
vn -0.0002 1.0000 0.0003
vt 0.000000 0.000000
s 0
f 16/1/1 1/1/1 4/1/1
f 18/1/2 33/1/2 17/1/2
f 24/1/3 6/1/3 5/1/3
f 8/1/4 23/1/4 7/1/4
f 31/1/5 9/1/5 32/1/5
f 20/1/6 30/1/6 19/1/6
f 21/1/7 10/1/7 22/1/7
f 11/1/8 29/1/8 12/1/8
f 13/1/5 28/1/5 14/1/5
f 27/1/9 15/1/9 26/1/9
f 25/1/9 2/1/9 3/1/9
f 50/1/10 51/1/10 49/1/10
f 53/1/10 54/1/10 52/1/10
f 56/1/10 57/1/10 55/1/10
f 59/1/10 60/1/10 58/1/10
f 62/1/10 63/1/10 61/1/10
f 35/1/10 36/1/10 34/1/10
f 38/1/10 39/1/10 37/1/10
f 41/1/10 42/1/10 40/1/10
f 44/1/10 45/1/10 43/1/10
f 47/1/10 48/1/10 46/1/10
