# Blender 4.4.3
# www.blender.org
mtllib aurinkolasikissa.mtl
o Cube
v -0.359772 -0.746659 0.378999
v -0.221422 0.615821 1.006547
v -0.359772 -0.746659 -0.365906
v 0.803336 -0.746659 1.071333
v -0.314426 -0.301698 0.921892
v -0.221422 1.282488 0.339880
v -0.221422 1.282488 -0.326787
v 1.362217 -0.746659 0.378999
v 1.581834 0.882365 0.160706
v 0.778940 0.615821 1.198344
v 1.362217 -0.301698 1.046497
v 0.565610 2.163820 1.006547
v 0.778940 1.559109 0.339880
v 0.278759 1.559109 -0.326787
v 0.278759 1.559109 0.339880
v 0.278759 -0.987123 -0.326787
v 0.278759 -0.987123 0.339880
v 0.778940 -0.987123 -0.326787
v 0.778940 -0.987123 0.339880
v 0.803336 -0.301698 1.446879
v 1.778780 -0.408568 -0.430765
v 1.778780 -0.408568 0.443859
v 1.903055 -0.167102 -0.326787
v 1.903055 -0.167102 0.339880
v -0.845132 -0.301698 0.314103
v -0.845132 -0.301698 -0.301009
v -0.745568 0.615821 0.339880
v -0.745568 0.615821 -0.326787
v -0.221422 0.615821 -0.993453
v 0.803336 -0.746659 -1.058239
v -0.314426 -0.301698 -0.908799
v 1.362217 -0.746659 -0.365906
v 1.581834 0.882365 -0.147613
v 0.778940 0.615821 -1.185250
v 1.362217 -0.301698 -1.033403
v 0.565610 2.163820 -0.993453
v 0.778940 1.559109 -0.326787
v 0.803336 -0.301698 -1.433785
v 1.604075 -0.270352 -0.550030
v 1.660785 -0.317550 -0.545098
v 1.609519 -0.321948 -0.550851
v 2.216166 -0.279914 -1.931922
v 1.604075 -0.136250 -0.485788
v 1.660785 -0.180839 -0.519042
v 1.609519 -0.183892 -0.527894
v 2.216166 0.103608 -1.778010
v 1.473296 -0.412161 -0.545527
v 1.530006 -0.456679 -0.511847
v 1.478740 -0.461671 -0.514655
v 2.085387 -0.612916 -1.859043
v 1.604075 -0.270352 0.529299
v 1.660785 -0.317550 0.524368
v 1.609519 -0.321948 0.530120
v 2.216166 -0.279914 1.911191
v 1.604075 -0.136250 0.465057
v 1.660785 -0.180839 0.498312
v 1.609519 -0.183892 0.507163
v 2.216166 0.103608 1.757279
v 1.473296 -0.412161 0.524796
v 1.530006 -0.456679 0.491116
v 1.478740 -0.461671 0.493925
v 2.085387 -0.612916 1.838312
v 1.495109 0.353866 1.122901
v 1.495109 0.993164 1.190191
v 1.495109 0.353866 0.527097
v 1.495109 0.993164 0.341742
v 1.536004 0.353866 1.122901
v 1.536004 0.993164 1.122901
v 1.536004 0.353866 0.527097
v 1.536004 0.993164 0.341742
v 1.495109 0.864848 0.341742
v 1.536004 0.864848 0.341742
v 1.495109 0.993164 0.000000
v 1.536004 0.993164 0.000000
v 1.495109 0.864848 0.000000
v 1.536004 0.864848 0.000000
v 1.495109 0.896913 1.190191
v 1.536004 0.828373 1.224574
v 1.495109 0.896913 1.224574
v 1.495109 0.993164 1.224574
v 1.536004 0.993164 1.224574
v -0.070551 0.896913 1.190191
v -0.070551 0.993164 1.190191
v -0.070551 0.896913 1.224574
v -0.070551 0.993164 1.224574
v -0.153215 0.828373 1.190191
v -0.153215 0.993164 1.190191
v -0.153215 0.828373 1.224574
v -0.153215 0.993164 1.224574
v -0.070551 0.752018 1.224574
v -0.070551 0.752018 1.190191
v -0.153215 0.752018 1.224574
v -0.153215 0.752018 1.190191
v 1.495109 0.353866 -1.122901
v 1.495109 0.993164 -1.190191
v 1.495109 0.353866 -0.527097
v 1.495109 0.993164 -0.341742
v 1.536004 0.353866 -1.122901
v 1.536004 0.993164 -1.122901
v 1.536004 0.353866 -0.527097
v 1.536004 0.993164 -0.341742
v 1.495109 0.864848 -0.341742
v 1.536004 0.864848 -0.341742
v 1.495109 0.896913 -1.190191
v 1.536004 0.828373 -1.224574
v 1.495109 0.896913 -1.224574
v 1.495109 0.993164 -1.224574
v 1.536004 0.993164 -1.224574
v -0.070551 0.896913 -1.190191
v -0.070551 0.993164 -1.190191
v -0.070551 0.896913 -1.224574
v -0.070551 0.993164 -1.224574
v -0.153215 0.828373 -1.190191
v -0.153215 0.993164 -1.190191
v -0.153215 0.828373 -1.224574
v -0.153215 0.993164 -1.224574
v -0.070551 0.752018 -1.224574
v -0.070551 0.752018 -1.190191
v -0.153215 0.752018 -1.224574
v -0.153215 0.752018 -1.190191
v 1.180387 1.220737 0.250293
v 1.180387 1.220737 -0.237200
v -0.221422 1.282488 0.151521
v -0.221422 1.282488 -0.138427
v 0.278759 1.559109 -0.138427
v 0.278759 1.559109 0.151521
v 0.778940 1.559109 0.151521
v -0.745568 0.615821 0.151521
v -0.745568 0.615821 -0.138427
v 0.778940 1.559109 -0.138427
v 1.180387 1.220737 0.112557
v 1.180387 1.220737 -0.099464
v -0.457856 1.347246 -0.283648
v -0.457856 1.347246 0.296741
v 0.137804 1.819738 -0.283648
v 0.137804 1.819738 0.296741
v 0.885731 1.819738 0.296741
v 0.885731 1.819738 -0.283648
v 1.276079 1.481366 0.218748
v 1.276079 1.481366 -0.205655
v 0.778940 1.559109 0.339880
v 0.778940 1.559109 0.339880
v 0.778940 1.559109 0.339880
v 0.778940 1.559109 0.339880
v 0.565610 2.163820 1.006547
v 0.565610 2.163820 1.006547
v 0.565610 2.163820 1.006547
v 0.778940 1.559109 0.151521
v 0.778940 1.559109 0.151521
v 1.180387 1.220737 0.250293
v 1.581834 0.882365 0.160706
v 1.581834 0.882365 0.160706
v 0.278759 1.559109 0.339880
v -0.221422 1.282488 -0.326787
v -0.221422 1.282488 -0.326787
v 0.278759 1.559109 -0.326787
v -0.221422 1.282488 0.339880
v -0.221422 1.282488 0.339880
v 1.362217 -0.301698 1.046497
v 1.362217 -0.301698 1.046497
v 0.803336 -0.301698 1.446879
v 0.803336 -0.301698 1.446879
v 0.803336 -0.301698 1.446879
v 1.778780 -0.408568 0.443859
v 1.903055 -0.167102 -0.326787
v 1.903055 -0.167102 -0.326787
v 1.903055 -0.167102 -0.326787
v 1.903055 -0.167102 0.339880
v 1.903055 -0.167102 0.339880
v 1.903055 -0.167102 0.339880
v 1.778780 -0.408568 -0.430765
v -0.314426 -0.301698 0.921892
v -0.314426 -0.301698 0.921892
v -0.845132 -0.301698 0.314103
v -0.845132 -0.301698 0.314103
v -0.845132 -0.301698 0.314103
v -0.845132 -0.301698 -0.301009
v -0.845132 -0.301698 -0.301009
v -0.845132 -0.301698 -0.301009
v 0.137804 1.819738 0.296741
v 0.137804 1.819738 0.296741
v 0.885731 1.819738 0.296741
v 0.885731 1.819738 0.296741
v -0.745568 0.615821 0.339880
v -0.745568 0.615821 0.339880
v -0.745568 0.615821 -0.326787
v -0.745568 0.615821 -0.326787
v -0.221422 0.615821 1.006547
v 0.778940 0.615821 1.198344
v 0.778940 0.615821 1.198344
v 0.778940 1.559109 -0.326787
v 0.778940 1.559109 -0.326787
v 0.778940 1.559109 -0.326787
v 0.778940 1.559109 -0.326787
v 0.565610 2.163820 -0.993453
v 0.565610 2.163820 -0.993453
v 0.565610 2.163820 -0.993453
v 1.180387 1.220737 -0.237200
v 1.581834 0.882365 -0.147613
v 1.581834 0.882365 -0.147613
v 1.362217 -0.301698 -1.033403
v 1.362217 -0.301698 -1.033403
v 0.803336 -0.301698 -1.433785
v 0.803336 -0.301698 -1.433785
v 0.803336 -0.301698 -1.433785
v -0.314426 -0.301698 -0.908799
v -0.314426 -0.301698 -0.908799
v -0.221422 0.615821 -0.993453
v 0.778940 0.615821 -1.185250
v 0.778940 0.615821 -1.185250
v 0.803336 -0.746659 1.071333
v 0.803336 -0.746659 -1.058239
v 1.660785 -0.317550 -0.545098
v 1.660785 -0.317550 -0.545098
v 1.604075 -0.270352 -0.550030
v 1.604075 -0.270352 -0.550030
v 1.609519 -0.321948 -0.550851
v 1.609519 -0.321948 -0.550851
v 2.216166 -0.279914 -1.931922
v 2.216166 -0.279914 -1.931922
v 1.660785 -0.180839 -0.519042
v 1.660785 -0.180839 -0.519042
v 1.604075 -0.136250 -0.485788
v 1.604075 -0.136250 -0.485788
v 1.609519 -0.183892 -0.527894
v 1.609519 -0.183892 -0.527894
v 2.216166 0.103608 -1.778010
v 2.216166 0.103608 -1.778010
v 1.530006 -0.456679 -0.511847
v 1.530006 -0.456679 -0.511847
v 1.473296 -0.412161 -0.545527
v 1.473296 -0.412161 -0.545527
v 1.478740 -0.461671 -0.514655
v 1.478740 -0.461671 -0.514655
v 2.085387 -0.612916 -1.859043
v 2.085387 -0.612916 -1.859043
v 1.660785 -0.317550 0.524368
v 1.660785 -0.317550 0.524368
v 1.604075 -0.270352 0.529299
v 1.604075 -0.270352 0.529299
v 1.609519 -0.321948 0.530120
v 1.609519 -0.321948 0.530120
v 2.216166 -0.279914 1.911191
v 2.216166 -0.279914 1.911191
v 1.660785 -0.180839 0.498312
v 1.660785 -0.180839 0.498312
v 1.604075 -0.136250 0.465057
v 1.604075 -0.136250 0.465057
v 1.609519 -0.183892 0.507163
v 1.609519 -0.183892 0.507163
v 2.216166 0.103608 1.757279
v 2.216166 0.103608 1.757279
v 1.530006 -0.456679 0.491116
v 1.530006 -0.456679 0.491116
v 1.473296 -0.412161 0.524796
v 1.473296 -0.412161 0.524796
v 1.478740 -0.461671 0.493925
v 1.478740 -0.461671 0.493925
v 2.085387 -0.612916 1.838312
v 2.085387 -0.612916 1.838312
v 1.495109 0.353866 0.527097
v 1.495109 0.353866 0.527097
v 1.495109 0.353866 1.122901
v 1.495109 0.353866 1.122901
v 1.495109 0.896913 1.190191
v 1.495109 0.896913 1.190191
v 1.495109 0.993164 1.190191
v 1.495109 0.993164 1.190191
v 1.495109 0.993164 0.341742
v 1.495109 0.864848 0.341742
v 1.495109 0.864848 0.341742
v 1.536004 0.353866 0.527097
v 1.536004 0.353866 0.527097
v 1.536004 0.864848 0.341742
v 1.536004 0.864848 0.341742
v 1.536004 0.353866 1.122901
v 1.536004 0.353866 1.122901
v 1.536004 0.993164 0.341742
v 1.536004 0.993164 1.122901
v 1.536004 0.828373 1.224574
v 1.495109 0.993164 0.000000
v 1.495109 0.993164 0.000000
v 1.495109 0.993164 0.000000
v 1.495109 0.993164 0.000000
v 1.536004 0.993164 0.000000
v 1.536004 0.993164 0.000000
v 1.536004 0.993164 0.000000
v 1.536004 0.993164 0.000000
v 1.495109 0.864848 0.000000
v 1.495109 0.864848 0.000000
v 1.495109 0.864848 0.000000
v 1.495109 0.864848 0.000000
v 1.536004 0.864848 0.000000
v 1.536004 0.864848 0.000000
v 1.536004 0.864848 0.000000
v 1.536004 0.864848 0.000000
v 1.495109 0.896913 1.224574
v 1.495109 0.896913 1.224574
v 1.536004 0.993164 1.224574
v 1.536004 0.993164 1.224574
v 1.495109 0.993164 1.224574
v -0.070551 0.896913 1.224574
v -0.070551 0.896913 1.224574
v -0.070551 0.896913 1.190191
v -0.070551 0.896913 1.190191
v -0.070551 0.993164 1.224574
v -0.070551 0.993164 1.190191
v -0.153215 0.828373 1.190191
v -0.153215 0.993164 1.190191
v -0.153215 0.993164 1.190191
v -0.153215 0.828373 1.224574
v -0.153215 0.993164 1.224574
v -0.153215 0.993164 1.224574
v -0.070551 0.752018 1.224574
v -0.070551 0.752018 1.224574
v -0.070551 0.752018 1.190191
v -0.070551 0.752018 1.190191
v -0.153215 0.752018 1.224574
v -0.153215 0.752018 1.224574
v -0.153215 0.752018 1.190191
v -0.153215 0.752018 1.190191
v 1.495109 0.353866 -0.527097
v 1.495109 0.353866 -0.527097
v 1.495109 0.353866 -1.122901
v 1.495109 0.353866 -1.122901
v 1.495109 0.896913 -1.190191
v 1.495109 0.896913 -1.190191
v 1.495109 0.993164 -1.190191
v 1.495109 0.993164 -1.190191
v 1.495109 0.993164 -0.341742
v 1.495109 0.864848 -0.341742
v 1.495109 0.864848 -0.341742
v 1.536004 0.353866 -0.527097
v 1.536004 0.353866 -0.527097
v 1.536004 0.864848 -0.341742
v 1.536004 0.864848 -0.341742
v 1.536004 0.353866 -1.122901
v 1.536004 0.353866 -1.122901
v 1.536004 0.993164 -0.341742
v 1.536004 0.993164 -1.122901
v 1.536004 0.828373 -1.224574
v 1.495109 0.896913 -1.224574
v 1.495109 0.896913 -1.224574
v 1.536004 0.993164 -1.224574
v 1.536004 0.993164 -1.224574
v 1.495109 0.993164 -1.224574
v -0.070551 0.896913 -1.224574
v -0.070551 0.896913 -1.224574
v -0.070551 0.896913 -1.190191
v -0.070551 0.896913 -1.190191
v -0.070551 0.993164 -1.224574
v -0.070551 0.993164 -1.190191
v -0.153215 0.828373 -1.190191
v -0.153215 0.993164 -1.190191
v -0.153215 0.993164 -1.190191
v -0.153215 0.828373 -1.224574
v -0.153215 0.993164 -1.224574
v -0.153215 0.993164 -1.224574
v -0.070551 0.752018 -1.224574
v -0.070551 0.752018 -1.224574
v -0.070551 0.752018 -1.190191
v -0.070551 0.752018 -1.190191
v -0.153215 0.752018 -1.224574
v -0.153215 0.752018 -1.224574
v -0.153215 0.752018 -1.190191
v -0.153215 0.752018 -1.190191
v 0.278759 1.559109 0.151521
v -0.221422 1.282488 -0.138427
v 0.278759 1.559109 -0.138427
v -0.221422 1.282488 0.151521
v -0.745568 0.615821 0.151521
v -0.745568 0.615821 0.151521
v -0.745568 0.615821 -0.138427
v -0.745568 0.615821 -0.138427
v 0.778940 1.559109 -0.138427
v 0.778940 1.559109 -0.138427
v 1.180387 1.220737 0.112557
v 1.180387 1.220737 0.112557
v 1.180387 1.220737 -0.099464
v 1.180387 1.220737 -0.099464
v -0.457856 1.347246 0.296741
v -0.457856 1.347246 0.296741
v -0.457856 1.347246 -0.283648
v -0.457856 1.347246 -0.283648
v 0.137804 1.819738 -0.283648
v 0.137804 1.819738 -0.283648
v 0.885731 1.819738 -0.283648
v 0.885731 1.819738 -0.283648
v 1.276079 1.481366 0.218748
v 1.276079 1.481366 0.218748
v 1.276079 1.481366 -0.205655
v 1.276079 1.481366 -0.205655
vn -0.4979 -0.8139 0.2994
vn -0.2674 0.0960 0.9588
vn -0.4979 -0.8139 -0.2994
vn -0.2945 -0.7559 0.5847
vn -0.7697 0.0424 0.6370
vn -0.4176 0.7552 -0.5053
vn -0.4176 0.7552 0.5053
vn 0.5124 -0.8348 0.2015
vn 0.6445 0.7646 -0.0000
vn -0.2588 0.0960 0.9611
vn 0.7983 -0.1610 0.5804
vn -0.1874 0.0953 0.9776
vn -0.0000 1.0000 -0.0000
vn -0.2711 0.7681 0.5801
vn -0.2499 0.9683 -0.0000
vn -0.1826 -0.9625 -0.2005
vn -0.1826 -0.9625 0.2005
vn 0.1394 -0.9739 -0.1792
vn 0.1394 -0.9739 0.1792
vn -0.3191 0.0961 0.9428
vn 0.7983 -0.1610 -0.5804
vn 0.9562 0.2927 -0.0000
vn -0.9942 0.1079 -0.0000
vn -0.7697 0.0424 -0.6370
vn -0.7861 0.6181 -0.0000
vn -0.7742 0.2942 -0.5605
vn -0.2945 -0.7559 -0.5847
vn 0.5124 -0.8348 -0.2015
vn -0.2588 0.0960 -0.9611
vn -0.1874 0.0953 -0.9776
vn -0.3191 0.0961 -0.9428
vn 0.6037 0.7528 0.2622
vn 0.0847 -0.9964 0.0069
vn 0.7002 0.5650 0.4365
vn 0.0897 -0.9793 -0.1817
vn 0.5604 0.8169 0.1363
vn 0.0877 -0.9847 0.1503
vn 0.6037 0.7528 -0.2622
vn 0.0847 -0.9964 -0.0069
vn 0.7002 0.5650 -0.4365
vn 0.0897 -0.9793 0.1817
vn 0.5604 0.8169 -0.1363
vn 0.0877 -0.9847 -0.1503
vn -0.1620 -0.1934 0.9677
vn -0.0000 -0.0000 -1.0000
vn -0.0000 -0.3410 -0.9401
vn 1.0000 -0.0000 -0.0000
vn -0.0000 -1.0000 -0.0000
vn -0.1346 -0.1606 0.9778
vn -0.0000 -0.0000 1.0000
vn -1.0000 -0.0000 -0.0000
vn -0.1620 -0.1934 -0.9677
vn -0.0000 -0.3410 0.9401
vn -0.1346 -0.1606 -0.9778
vn 0.3399 -0.3948 0.8535
vn 0.3399 -0.3948 -0.8535
vn 0.1296 -0.4653 -0.8756
vn -0.0903 -0.4311 0.8978
vn 0.4251 -0.3342 0.8412
vn -0.1810 -0.3693 0.9115
vn 0.9387 -0.3447 -0.0000
vn -0.9306 0.3661 -0.0000
vn 0.1638 -0.4582 -0.8736
vn -0.6215 0.7835 -0.0000
vn -0.0906 -0.4309 0.8978
vn 0.6550 0.7556 -0.0000
vn 0.9730 0.1552 0.1706
vn -0.0000 0.7407 -0.6719
vn 0.5909 0.5430 0.5967
vn -0.8119 0.4128 0.4128
vn -0.1686 0.7651 -0.6214
vn 0.6613 0.4221 0.6201
vn -0.2711 0.7681 -0.5801
vn -0.6479 0.7617 -0.0000
vn -0.7633 0.4569 -0.4569
vn -0.7633 0.4569 0.4569
vn 0.5269 -0.6631 0.5317
vn 0.6646 0.3100 0.6799
vn 0.4802 -0.5657 0.6703
vn 0.5668 0.2294 0.7912
vn -0.3523 -0.6634 0.6602
vn 0.7108 -0.6845 0.1621
vn 0.8891 -0.4576 -0.0000
vn 0.7081 0.3351 -0.6216
vn 0.7081 0.3351 0.6216
vn 0.7108 -0.6845 -0.1621
vn -0.4371 -0.6457 0.6261
vn -0.6096 -0.5874 0.5323
vn -0.6758 -0.7371 -0.0000
vn -0.6096 -0.5873 -0.5323
vn 0.1638 -0.4582 0.8736
vn -0.7515 0.2511 0.6101
vn -0.7515 0.2511 -0.6101
vn -0.7742 0.2942 0.5605
vn 0.6475 0.3765 0.6626
vn -0.0000 0.7407 0.6719
vn 0.9730 0.1552 -0.1706
vn 0.5909 0.5430 -0.5967
vn -0.8119 0.4128 -0.4128
vn -0.1686 0.7651 0.6214
vn 0.6613 0.4221 -0.6201
vn 0.5269 -0.6631 -0.5317
vn 0.6646 0.3100 -0.6799
vn 0.4802 -0.5657 -0.6703
vn 0.5668 0.2294 -0.7912
vn -0.3523 -0.6634 -0.6602
vn -0.4371 -0.6457 -0.6261
vn -0.2674 0.0960 -0.9588
vn 0.6475 0.3765 -0.6626
vn 0.4787 -0.7169 0.5068
vn 0.4787 -0.7169 -0.5068
vn -0.1091 -0.0273 0.9936
vn -0.9109 -0.0897 -0.4028
vn -0.0884 -0.6653 0.7413
vn -0.8947 0.2340 -0.3804
vn -0.0971 0.5189 0.8493
vn -0.8764 -0.3205 -0.3594
vn -0.1092 -0.0273 -0.9937
vn -0.9109 -0.0897 0.4028
vn -0.0884 -0.6653 -0.7413
vn -0.8947 0.2340 0.3804
vn -0.0971 0.5189 -0.8493
vn -0.8764 -0.3205 0.3594
vn -0.0194 -0.0232 0.9995
vn -0.0194 -0.0232 -0.9995
vn 0.1296 -0.4653 0.8756
vn -0.9794 0.2020 -0.0000
vn 0.4251 -0.3342 -0.8412
vn -0.0903 -0.4311 -0.8978
vn -0.1810 -0.3693 -0.9115
vn 0.3731 -0.3721 0.8499
vn 0.3731 -0.3721 -0.8499
vn -0.0906 -0.4309 -0.8978
vt 0.541667 0.750000
vt 0.541667 0.666667
vt 0.625000 0.666667
vt 0.291667 0.666667
vt 0.375000 0.666667
vt 0.291667 0.750000
vt 0.541667 1.000000
vt 0.625000 0.916667
vt 0.625000 0.083333
vt 0.541667 0.833333
vt 0.708333 0.666667
vt 0.625000 0.833333
vt 0.791667 0.666667
vt 0.708333 0.750000
vt 0.541667 0.083333
vt 0.208333 0.666667
vt 0.208333 0.750000
vt 0.125000 0.583333
vt 0.208333 0.583333
vt 0.125000 0.666667
vt 0.291667 0.583333
vt 0.375000 0.583333
vt 0.375000 0.750000
vt 0.458333 0.750000
vt 0.458333 0.833333
vt 0.375000 0.833333
vt 0.458333 0.916667
vt 0.375000 0.916667
vt 0.541667 0.916667
vt 0.666667 0.666667
vt 0.458333 0.666667
vt 0.458333 0.583333
vt 0.541667 0.583333
vt 0.625000 0.583333
vt 0.375000 0.000000
vt 0.458333 0.000000
vt 0.458333 0.083333
vt 0.375000 0.083333
vt 0.458333 0.166667
vt 0.375000 0.166667
vt 0.541667 0.000000
vt 0.541667 0.111111
vt 0.541667 0.138889
vt 0.541667 0.166667
vt 0.625000 0.000000
vt 0.500000 0.000000
vt 0.625000 0.250000
vt 0.500000 0.250000
vt 0.375000 0.250000
vt 0.375000 0.500000
vt 0.500000 0.500000
vt 0.625000 0.500000
vt 0.625000 0.750000
vt 0.500000 0.750000
vt 0.125000 0.500000
vt 0.125000 0.750000
vt 0.875000 0.500000
vt 0.875000 0.750000
vt 0.500000 1.000000
vt 0.625000 1.000000
vt 0.666667 0.583333
vt 0.666667 0.611111
vt 0.666667 0.638889
vt 0.708333 0.583333
vt 0.791667 0.583333
vt 0.875000 0.583333
vt 0.875000 0.666667
vt 0.625000 0.166667
s 1
usemtl lasi
f 217/2/112 213/31/112 215/24/112
f 218/2/113 216/24/113 220/2/113
f 214/31/33 41/2/33 219/31/33
f 39/24/32 40/31/32 42/24/32
f 225/2/114 221/31/114 223/24/114
f 226/2/115 224/24/115 228/2/115
f 222/31/35 45/2/35 227/31/35
f 43/24/34 44/31/34 46/24/34
f 233/2/116 229/31/116 231/24/116
f 234/2/117 232/24/117 236/2/117
f 230/31/37 49/2/37 235/31/37
f 47/24/36 48/31/36 50/24/36
f 241/2/118 239/24/118 237/31/118
f 242/2/119 244/2/119 240/24/119
f 238/31/39 243/31/39 53/2/39
f 51/24/38 54/24/38 52/31/38
f 249/2/120 247/24/120 245/31/120
f 250/2/121 252/2/121 248/24/121
f 246/31/41 251/31/41 57/2/41
f 55/24/40 58/24/40 56/31/40
f 257/2/122 255/24/122 253/31/122
f 258/2/123 260/2/123 256/24/123
f 254/31/43 259/31/43 61/2/43
f 59/24/42 62/24/42 60/31/42
f 263/35/51 265/46/51 267/45/51 269/47/51 270/48/51 261/49/51
f 270/48/51 269/47/51 283/47/51 291/48/51
f 273/50/47 274/51/47 70/52/47 279/53/47 280/54/47 276/23/47
f 280/54/47 279/53/47 300/53/47
f 262/55/48 272/50/48 277/23/48 264/56/48
f 278/52/13 66/57/13 268/58/13 68/53/13
f 65/49/46 271/48/46 275/51/46 69/50/46
f 289/48/45 282/47/45 74/52/45 296/51/45
f 70/52/47 274/51/47 293/51/47 286/52/47
f 66/57/13 278/52/13 285/52/13 281/57/13
f 72/51/48 71/48/48 290/48/48 294/51/48
f 78/54/49 297/59/124 63/35/44 67/23/44
f 78/54/49 299/53/50 301/60/50 297/59/124
f 68/53/13 268/58/13 80/58/13 81/53/13
f 265/59/51 263/35/51 298/59/51
f 297/59/124 301/60/50 306/60/50 302/59/50
f 305/59/47 303/59/47 314/59/47 316/59/47
f 266/59/48 79/59/48 84/59/48 82/59/48
f 64/45/45 77/46/45 304/46/45 307/45/45
f 80/58/13 268/58/13 83/58/13 85/58/13
f 309/45/51 308/46/51 311/46/51 312/45/51
f 302/59/50 306/60/50 313/60/50 88/59/50
f 85/58/13 83/58/13 310/58/13 89/58/13
f 307/45/45 304/46/45 86/46/45 87/45/45
f 317/59/48 315/59/48 318/59/48 320/59/48
f 302/59/50 88/59/50 319/59/50 90/59/50
f 86/46/45 304/46/45 91/46/45 321/46/45
f 311/46/51 308/46/51 93/46/51 92/46/51
f 324/35/51 322/49/51 331/48/51 330/47/51 328/45/51 326/46/51
f 331/48/51 292/48/51 284/47/51 330/47/51
f 334/50/47 337/23/47 341/54/47 340/53/47 101/52/47 335/51/47
f 341/54/47 345/53/47 340/53/47
f 323/55/48 325/56/48 338/23/48 333/50/48
f 339/52/13 99/53/13 329/58/13 97/57/13
f 96/49/53 100/50/53 336/51/53 332/48/53
f 101/52/47 287/52/47 295/51/47 335/51/47
f 97/57/13 73/57/13 288/52/13 339/52/13
f 103/51/48 76/51/48 75/48/48 102/48/48
f 105/54/54 98/23/52 94/35/52 342/59/125
f 105/54/54 342/59/125 346/60/45 344/53/45
f 99/53/13 108/53/13 107/58/13 329/58/13
f 326/59/51 343/59/51 324/35/51
f 342/59/125 347/59/45 351/60/45 346/60/45
f 350/59/47 361/59/47 359/59/47 348/59/47
f 327/59/48 109/59/48 111/59/48 106/59/48
f 95/45/50 352/45/50 349/46/50 104/46/50
f 107/58/13 112/58/13 110/58/13 329/58/13
f 354/45/51 357/45/51 356/46/51 353/46/51
f 347/59/45 115/59/45 358/60/45 351/60/45
f 112/58/13 116/58/13 355/58/13 110/58/13
f 352/45/50 114/45/50 113/46/50 349/46/50
f 362/59/48 365/59/48 363/59/48 360/59/48
f 347/59/45 117/59/45 364/59/45 115/59/45
f 113/46/50 366/46/50 118/46/50 349/46/50
f 356/46/51 119/46/51 120/46/51 353/46/51
usemtl kisu
f 189/1/95 168/2/85 151/3/72
f 19/4/19 8/5/8 211/6/110
f 188/7/94 146/8/70 157/9/76
f 190/10/67 141/11/67 145/12/67
f 143/11/68 153/13/73 147/14/71
f 158/9/74 15/13/15 126/13/15 370/9/74
f 185/15/25 158/9/74 370/9/74 372/15/25
f 156/13/15 154/9/74 368/9/74 369/13/15
f 17/16/17 19/4/19 4/6/4 1/17/1
f 3/18/3 16/19/16 17/16/17 1/20/1
f 16/19/16 18/21/18 19/4/19 17/16/17
f 18/21/18 32/22/28 8/5/8 19/4/19
f 211/23/110 159/24/77 161/25/79
f 4/26/4 163/25/81 172/27/87 1/28/1
f 160/24/78 189/10/95 162/25/80
f 20/25/20 10/10/10 2/29/2 173/27/20
f 144/11/69 189/1/95 151/3/72 150/30/69
f 10/10/10 12/8/12 2/29/2
f 8/5/8 164/31/82 159/24/77 211/23/110
f 170/2/11 11/24/11 22/31/11
f 32/22/28 171/32/86 164/31/82 8/5/8
f 171/32/86 165/33/83 169/2/83 164/31/82
f 166/33/22 200/34/22 152/3/22 24/2/22
f 1/35/1 172/36/87 174/37/88
f 1/38/1 175/37/89 177/39/89 3/40/3
f 5/36/5 188/41/94 184/15/92 176/37/5
f 25/37/23 27/15/23 371/42/127 373/43/127 186/44/23 178/39/23
f 188/45/94 157/9/76 184/15/92
f 142/11/9 121/30/9 377/30/9 148/11/9
f 168/2/85 189/1/95 160/24/78
f 153/13/73 6/9/6 147/14/71
f 209/1/109 199/3/101 167/2/84
f 18/4/18 212/6/111 32/5/28
f 29/7/26 155/9/75 196/8/99
f 210/10/97 195/12/97 192/11/97
f 191/11/96 197/14/100 14/13/14
f 16/16/16 3/17/3 30/6/27 18/4/18
f 212/23/111 203/25/104 201/24/102
f 30/26/27 3/28/3 207/27/107 205/25/106
f 202/24/103 204/25/105 209/10/109
f 38/25/31 206/27/31 208/29/108 34/10/29
f 193/11/98 198/30/98 199/3/101 209/1/109
f 34/10/29 208/29/108 36/8/30
f 32/5/28 212/23/111 201/24/102 171/31/86
f 23/2/21 21/31/21 35/24/21
f 3/35/3 179/37/90 207/36/107
f 31/36/24 26/37/24 187/15/93 29/41/26
f 29/45/26 187/15/93 155/9/75
f 167/2/84 202/24/103 209/1/109
f 14/13/14 197/14/100 7/9/7
f 33/34/9 122/61/9 380/62/9 377/63/9 121/30/9 9/3/9
f 122/30/9 194/11/9 376/11/9 380/30/9
f 154/9/74 28/15/25 129/15/25 368/9/74
f 15/13/15 13/11/13 149/11/13 126/13/15
f 37/11/13 156/13/15 369/13/15 130/11/13
usemtl hius
f 375/11/129 125/13/57 135/13/63 387/11/133
f 379/30/130 375/11/129 387/11/133 391/30/130
f 123/9/55 367/13/126 181/13/91 381/9/131
f 124/9/56 374/15/128 383/9/132
f 388/64/13 386/65/13 180/13/13 182/11/13
f 392/61/66 138/64/66 183/11/66 389/30/66
f 385/65/64 384/66/64 382/67/64 136/13/64
f 371/15/127 134/9/62 133/68/62 373/44/127
f 378/63/61 132/62/61 140/62/61 390/63/61
f 367/13/126 127/11/58 137/11/65 181/13/91
f 128/15/59 123/9/55 381/9/131
f 125/13/57 124/9/56 383/9/132 135/13/63
f 127/11/58 131/30/60 139/30/60 137/11/65
