# Blender 4.4.3
# www.blender.org
mtllib skateboard.mtl
o Cube.002_Cube.003
v -1.000000 -0.088661 3.338151
v -1.000000 0.088660 3.338151
v -1.000000 -0.088661 -2.639473
v -1.000000 0.088661 -2.639473
v 1.000000 -0.088661 3.338151
v 1.000000 0.088660 3.338151
v 1.000000 -0.088661 -2.639473
v 1.000000 0.088661 -2.639473
v 0.333333 -0.088661 -2.639473
v -0.333333 -0.088661 -2.639473
v -0.333333 0.088661 -2.639473
v 0.333333 0.088661 -2.639473
v -0.333333 -0.088661 4.013578
v 0.333333 -0.088661 4.013578
v 0.333333 0.088661 4.013578
v -0.333333 0.088661 4.013578
v -1.000000 0.179925 -2.776781
v -1.000000 0.054540 -2.902166
v -0.333333 0.054540 -2.902166
v 0.333333 0.179925 -2.776781
v 1.000000 0.179925 -2.776781
v 1.000000 0.054540 -2.902166
v 0.333333 0.054540 -2.902166
v -0.333333 0.179925 -2.776781
v 0.746667 -0.341711 -2.155592
v 0.991240 -0.341711 -2.155592
v 0.746667 -0.560609 -2.119057
v 0.991240 -0.560609 -2.119057
v 0.746667 -0.689559 -1.938439
v 0.991240 -0.689559 -1.938439
v 0.746667 -0.653024 -1.719541
v 0.991240 -0.653024 -1.719541
v 0.746667 -0.472406 -1.590591
v 0.991240 -0.472406 -1.590591
v 0.746667 -0.253508 -1.627126
v 0.991240 -0.253508 -1.627126
v 0.746667 -0.124557 -1.807744
v 0.991240 -0.124557 -1.807744
v 0.746667 -0.161092 -2.026642
v 0.991240 -0.161092 -2.026642
v 0.746667 -0.374384 -2.014342
v 0.746667 -0.483834 -1.996075
v 0.746667 -0.548309 -1.905765
v 0.746667 -0.530041 -1.796317
v 0.746667 -0.439732 -1.731841
v 0.746667 -0.330283 -1.750109
v 0.746667 -0.265808 -1.840418
v 0.746667 -0.284075 -1.949867
v -0.662222 -0.341711 -2.155592
v -0.906796 -0.341711 -2.155592
v -0.662222 -0.560609 -2.119057
v -0.906796 -0.560609 -2.119057
v -0.662222 -0.689559 -1.938439
v -0.906796 -0.689559 -1.938439
v -0.662222 -0.653024 -1.719541
v -0.906796 -0.653024 -1.719541
v -0.662222 -0.472406 -1.590591
v -0.906796 -0.472406 -1.590591
v -0.662222 -0.253508 -1.627126
v -0.906796 -0.253508 -1.627126
v -0.662222 -0.124557 -1.807744
v -0.906796 -0.124557 -1.807744
v -0.662222 -0.161092 -2.026642
v -0.906796 -0.161092 -2.026642
v -0.662222 -0.374384 -2.014342
v -0.662222 -0.483834 -1.996075
v -0.662222 -0.548309 -1.905765
v -0.662222 -0.530041 -1.796317
v -0.662222 -0.439732 -1.731841
v -0.662222 -0.330283 -1.750109
v -0.662222 -0.265808 -1.840418
v -0.662222 -0.284075 -1.949867
v -0.253333 -0.374384 -2.014342
v -0.253333 -0.483833 -1.996075
v -0.253333 -0.548309 -1.905765
v -0.253333 -0.530041 -1.796317
v -0.253333 -0.439732 -1.731841
v -0.253333 -0.330283 -1.750109
v -0.253333 -0.265808 -1.840418
v -0.253333 -0.284075 -1.949867
v 0.746667 -0.341711 2.507371
v 0.991240 -0.341711 2.507371
v 0.746667 -0.560609 2.543906
v 0.991240 -0.560609 2.543906
v 0.746667 -0.689559 2.724524
v 0.991240 -0.689559 2.724524
v 0.746667 -0.653024 2.943422
v 0.991240 -0.653024 2.943422
v 0.746667 -0.472406 3.072372
v 0.991240 -0.472406 3.072372
v 0.746667 -0.253508 3.035837
v 0.991240 -0.253508 3.035837
v 0.746667 -0.124557 2.855219
v 0.991240 -0.124557 2.855219
v 0.746667 -0.161092 2.636321
v 0.991240 -0.161092 2.636321
v 0.746667 -0.374384 2.648621
v 0.746667 -0.483833 2.666888
v 0.746667 -0.548309 2.757198
v 0.746667 -0.530041 2.866647
v 0.746667 -0.439732 2.931122
v 0.746667 -0.330283 2.912854
v 0.746667 -0.265808 2.822545
v 0.746667 -0.284075 2.713096
v -0.662222 -0.341711 2.507371
v -0.906796 -0.341711 2.507371
v -0.662222 -0.560609 2.543906
v -0.906796 -0.560609 2.543906
v -0.662222 -0.689559 2.724524
v -0.906796 -0.689559 2.724524
v -0.662222 -0.653024 2.943422
v -0.906796 -0.653024 2.943422
v -0.662222 -0.472406 3.072372
v -0.906796 -0.472406 3.072372
v -0.662222 -0.253508 3.035837
v -0.906796 -0.253508 3.035837
v -0.662222 -0.124557 2.855219
v -0.906796 -0.124557 2.855219
v -0.662222 -0.161092 2.636321
v -0.906796 -0.161092 2.636321
v -0.662222 -0.374384 2.648621
v -0.662222 -0.483833 2.666888
v -0.662222 -0.548309 2.757198
v -0.662222 -0.530041 2.866647
v -0.662222 -0.439732 2.931122
v -0.662222 -0.330283 2.912854
v -0.662222 -0.265808 2.822545
v -0.662222 -0.284075 2.713096
v -0.253333 -0.374384 2.648621
v -0.253333 -0.483833 2.666888
v -0.253333 -0.548309 2.757198
v -0.253333 -0.530041 2.866647
v -0.253333 -0.439732 2.931122
v -0.253333 -0.330283 2.912854
v -0.253333 -0.265808 2.822545
v -0.253333 -0.284075 2.713096
v 0.245966 -0.367529 2.722563
v 0.282501 -0.367529 2.818517
v 0.153551 -0.367529 2.897690
v -0.065347 -0.367529 2.913705
v -0.245966 -0.367529 2.857180
v -0.282501 -0.367529 2.761227
v 0.065347 -0.367529 2.666038
v -0.153551 -0.367529 2.682053
v 0.065347 -0.006963 2.666038
v -0.153551 -0.006963 2.682053
v -0.282501 -0.006963 2.761227
v -0.245966 -0.006963 2.857180
v -0.065347 -0.006963 2.913706
v 0.153551 -0.006963 2.897690
v 0.282501 -0.006963 2.818517
v 0.245966 -0.006963 2.722563
v 0.245966 -0.367529 -1.913568
v 0.282501 -0.367529 -1.817614
v 0.153551 -0.367529 -1.738440
v -0.065347 -0.367529 -1.722425
v -0.245966 -0.367529 -1.778950
v -0.282501 -0.367529 -1.874904
v 0.065347 -0.367529 -1.970093
v -0.153551 -0.367529 -1.954078
v 0.065347 -0.006963 -1.970093
v -0.153551 -0.006963 -1.954078
v -0.282501 -0.006963 -1.874904
v -0.245966 -0.006963 -1.778950
v -0.065347 -0.006963 -1.722425
v 0.153551 -0.006963 -1.738440
v 0.282501 -0.006963 -1.817614
v 0.245966 -0.006963 -1.913568
vn -1.0000 -0.0000 -0.0000
vn -0.0000 0.8328 0.5535
vn 1.0000 -0.0000 -0.0000
vn -0.7117 -0.0000 0.7025
vn -0.0000 -1.0000 -0.0000
vn -0.0000 1.0000 -0.0000
vn 0.7117 -0.0000 0.7025
vn -0.0000 -0.0000 1.0000
vn -0.0000 -0.8780 -0.4786
vn -0.0000 0.7071 -0.7071
vn -0.0000 -0.1646 -0.9864
vn -0.0000 -0.8139 -0.5811
vn -0.0000 -0.9864 0.1646
vn -0.0000 -0.5811 0.8139
vn -0.0000 0.1646 0.9864
vn -0.0000 0.8139 0.5811
vn -0.0000 0.9864 -0.1646
vn -0.0000 0.5810 -0.8139
vn -0.0000 -0.8139 -0.5810
vn -0.0000 0.5811 -0.8139
vn -0.5232 -0.0000 -0.8522
vn 0.9345 -0.0000 -0.3558
vn 0.0730 -0.0000 0.9973
vn -0.9345 -0.0000 0.3558
vn -0.0730 -0.0000 -0.9973
vn 0.2987 -0.0000 -0.9544
vn 0.5232 -0.0000 0.8522
vn -0.2987 -0.0000 0.9544
vt 0.375000 0.000000
vt 0.625000 0.000000
vt 0.625000 0.250000
vt 0.375000 0.250000
vt 0.875000 0.500000
vt 0.791667 0.500000
vt 0.375000 0.500000
vt 0.625000 0.500000
vt 0.625000 0.750000
vt 0.375000 0.750000
vt 0.375000 0.916667
vt 0.625000 0.916667
vt 0.625000 1.000000
vt 0.375000 1.000000
vt 0.291667 0.500000
vt 0.291667 0.750000
vt 0.875000 0.750000
vt 0.791667 0.750000
vt 0.708333 0.500000
vt 0.708333 0.750000
vt 0.125000 0.500000
vt 0.208333 0.500000
vt 0.208333 0.750000
vt 0.125000 0.750000
vt 0.625000 0.833333
vt 0.375000 0.833333
vt 0.375000 0.416667
vt 0.625000 0.416667
vt 0.625000 0.333333
vt 0.375000 0.333333
vt 1.000000 0.500000
vt 1.000000 1.000000
vt 0.875000 1.000000
vt 0.750000 1.000000
vt 0.750000 0.500000
vt 0.500000 1.000000
vt 0.500000 0.500000
vt 0.250000 1.000000
vt 0.250000 0.500000
vt 0.419706 0.419706
vt 0.250000 0.490000
vt 0.080294 0.419706
vt 0.010000 0.250000
vt 0.080294 0.080294
vt 0.250000 0.010000
vt 0.419706 0.080294
vt 0.490000 0.250000
vt 0.125000 1.000000
vt 0.000000 1.000000
vt 0.000000 0.500000
vt 0.750000 0.490000
vt 0.919706 0.419706
vt 0.990000 0.250000
vt 0.919706 0.080294
vt 0.750000 0.010000
vt 0.580294 0.080294
vt 0.510000 0.250000
vt 0.580294 0.419706
s 0
usemtl lasi
f 25/31/11 26/32/11 28/33/11 27/5/11
f 27/5/12 28/33/12 30/34/12 29/35/12
f 29/35/13 30/34/13 32/13/13 31/8/13
f 31/8/14 32/13/14 34/36/14 33/37/14
f 33/37/15 34/36/15 36/14/15 35/7/15
f 35/7/16 36/14/16 38/38/16 37/39/16
f 28/40/3 26/41/3 40/42/3 38/43/3 36/44/3 34/45/3 32/46/3 30/47/3
f 37/39/17 38/38/17 40/48/17 39/21/17
f 39/21/18 40/48/18 26/49/18 25/50/18
f 31/8/1 33/37/1 45/37/1 44/8/1
f 42/5/19 43/35/19 75/35/19 74/5/19
f 37/39/1 39/21/1 48/21/1 47/39/1
f 27/5/1 29/35/1 43/35/1 42/5/1
f 33/37/1 35/7/1 46/7/1 45/37/1
f 39/21/1 25/50/1 41/50/1 48/21/1
f 25/31/1 27/5/1 42/5/1 41/31/1
f 29/35/1 31/8/1 44/8/1 43/35/1
f 35/7/1 37/39/1 47/39/1 46/7/1
f 47/39/17 48/21/17 80/21/17 79/39/17
f 45/37/15 46/7/15 78/7/15 77/37/15
f 43/35/13 44/8/13 76/8/13 75/35/13
f 41/31/11 42/5/11 74/5/11 73/31/11
f 48/21/20 41/50/20 73/50/20 80/21/20
f 46/7/16 47/39/16 79/39/16 78/7/16
f 44/8/14 45/37/14 77/37/14 76/8/14
f 49/31/11 51/5/11 52/33/11 50/32/11
f 51/5/12 53/35/12 54/34/12 52/33/12
f 53/35/13 55/8/13 56/13/13 54/34/13
f 55/8/14 57/37/14 58/36/14 56/13/14
f 57/37/15 59/7/15 60/14/15 58/36/15
f 59/7/16 61/39/16 62/38/16 60/14/16
f 52/40/1 54/47/1 56/46/1 58/45/1 60/44/1 62/43/1 64/42/1 50/41/1
f 61/39/17 63/21/17 64/48/17 62/38/17
f 63/21/20 49/50/20 50/49/20 64/48/20
f 55/8/3 68/8/3 69/37/3 57/37/3
f 66/5/19 74/5/19 75/35/19 67/35/19
f 61/39/3 71/39/3 72/21/3 63/21/3
f 51/5/3 66/5/3 67/35/3 53/35/3
f 57/37/3 69/37/3 70/7/3 59/7/3
f 63/21/3 72/21/3 65/50/3 49/50/3
f 49/31/3 65/31/3 66/5/3 51/5/3
f 53/35/3 67/35/3 68/8/3 55/8/3
f 59/7/3 70/7/3 71/39/3 61/39/3
f 73/51/1 74/52/1 75/53/1 76/54/1 77/55/1 78/56/1 79/57/1 80/58/1
f 71/39/17 79/39/17 80/21/17 72/21/17
f 69/37/15 77/37/15 78/7/15 70/7/15
f 67/35/13 75/35/13 76/8/13 68/8/13
f 65/31/11 73/31/11 74/5/11 66/5/11
f 72/21/20 80/21/20 73/50/20 65/50/20
f 70/7/16 78/7/16 79/39/16 71/39/16
f 68/8/14 76/8/14 77/37/14 69/37/14
f 81/31/11 82/32/11 84/33/11 83/5/11
f 83/5/12 84/33/12 86/34/12 85/35/12
f 85/35/13 86/34/13 88/13/13 87/8/13
f 87/8/14 88/13/14 90/36/14 89/37/14
f 89/37/15 90/36/15 92/14/15 91/7/15
f 91/7/16 92/14/16 94/38/16 93/39/16
f 84/40/3 82/41/3 96/42/3 94/43/3 92/44/3 90/45/3 88/46/3 86/47/3
f 93/39/17 94/38/17 96/48/17 95/21/17
f 95/21/18 96/48/18 82/49/18 81/50/18
f 87/8/1 89/37/1 101/37/1 100/8/1
f 98/5/12 99/35/12 131/35/12 130/5/12
f 93/39/1 95/21/1 104/21/1 103/39/1
f 83/5/1 85/35/1 99/35/1 98/5/1
f 89/37/1 91/7/1 102/7/1 101/37/1
f 95/21/1 81/50/1 97/50/1 104/21/1
f 81/31/1 83/5/1 98/5/1 97/31/1
f 85/35/1 87/8/1 100/8/1 99/35/1
f 91/7/1 93/39/1 103/39/1 102/7/1
f 103/39/17 104/21/17 136/21/17 135/39/17
f 101/37/15 102/7/15 134/7/15 133/37/15
f 99/35/13 100/8/13 132/8/13 131/35/13
f 97/31/11 98/5/11 130/5/11 129/31/11
f 104/21/20 97/50/20 129/50/20 136/21/20
f 102/7/16 103/39/16 135/39/16 134/7/16
f 100/8/14 101/37/14 133/37/14 132/8/14
f 105/31/11 107/5/11 108/33/11 106/32/11
f 107/5/12 109/35/12 110/34/12 108/33/12
f 109/35/13 111/8/13 112/13/13 110/34/13
f 111/8/14 113/37/14 114/36/14 112/13/14
f 113/37/15 115/7/15 116/14/15 114/36/15
f 115/7/16 117/39/16 118/38/16 116/14/16
f 108/40/1 110/47/1 112/46/1 114/45/1 116/44/1 118/43/1 120/42/1 106/41/1
f 117/39/17 119/21/17 120/48/17 118/38/17
f 119/21/20 105/50/20 106/49/20 120/48/20
f 111/8/3 124/8/3 125/37/3 113/37/3
f 122/5/12 130/5/12 131/35/12 123/35/12
f 117/39/3 127/39/3 128/21/3 119/21/3
f 107/5/3 122/5/3 123/35/3 109/35/3
f 113/37/3 125/37/3 126/7/3 115/7/3
f 119/21/3 128/21/3 121/50/3 105/50/3
f 105/31/3 121/31/3 122/5/3 107/5/3
f 109/35/3 123/35/3 124/8/3 111/8/3
f 115/7/3 126/7/3 127/39/3 117/39/3
f 129/51/1 130/52/1 131/53/1 132/54/1 133/55/1 134/56/1 135/57/1 136/58/1
f 127/39/17 135/39/17 136/21/17 128/21/17
f 125/37/15 133/37/15 134/7/15 126/7/15
f 123/35/13 131/35/13 132/8/13 124/8/13
f 121/31/11 129/31/11 130/5/11 122/5/11
f 128/21/18 136/21/18 129/50/18 121/50/18
f 126/7/16 134/7/16 135/39/16 127/39/16
f 124/8/14 132/8/14 133/37/14 125/37/14
f 144/40/5 143/41/5 137/42/5 138/43/5 139/44/5 140/45/5 141/46/5 142/47/5
f 146/40/6 147/47/6 148/46/6 149/45/6 150/44/6 151/43/6 152/42/6 145/41/6
f 147/47/21 146/40/21 144/40/21 142/47/21
f 152/42/22 151/43/22 138/43/22 137/42/22
f 150/44/23 149/45/23 140/45/23 139/44/23
f 148/46/24 147/47/24 142/47/24 141/46/24
f 146/40/25 145/41/25 143/41/25 144/40/25
f 145/41/26 152/42/26 137/42/26 143/41/26
f 151/43/27 150/44/27 139/44/27 138/43/27
f 149/45/28 148/46/28 141/46/28 140/45/28
f 160/40/5 159/41/5 153/42/5 154/43/5 155/44/5 156/45/5 157/46/5 158/47/5
f 162/40/6 163/47/6 164/46/6 165/45/6 166/44/6 167/43/6 168/42/6 161/41/6
f 163/47/21 162/40/21 160/40/21 158/47/21
f 168/42/22 167/43/22 154/43/22 153/42/22
f 166/44/23 165/45/23 156/45/23 155/44/23
f 164/46/24 163/47/24 158/47/24 157/46/24
f 162/40/25 161/41/25 159/41/25 160/40/25
f 161/41/26 168/42/26 153/42/26 159/41/26
f 167/43/27 166/44/27 155/44/27 154/43/27
f 165/45/28 164/46/28 157/46/28 156/45/28
usemtl hius.001
f 1/1/1 2/2/1 4/3/1 3/4/1
f 4/5/2 11/6/2 24/6/2 17/5/2
f 7/7/3 8/8/3 6/9/3 5/10/3
f 13/11/4 16/12/4 2/13/4 1/14/4
f 9/15/5 7/7/5 5/10/5 14/16/5
f 11/6/6 4/5/6 2/17/6 16/18/6
f 8/8/6 12/19/6 15/20/6 6/9/6
f 12/19/6 11/6/6 16/18/6 15/20/6
f 3/21/5 10/22/5 13/23/5 1/24/5
f 10/22/5 9/15/5 14/16/5 13/23/5
f 5/10/7 6/9/7 15/25/7 14/26/7
f 14/26/8 15/25/8 16/12/8 13/11/8
f 12/19/2 8/8/2 21/8/2 20/19/2
f 9/15/9 10/22/9 19/22/9 23/15/9
f 23/27/10 20/28/10 21/8/10 22/7/10
f 18/4/10 17/3/10 24/29/10 19/30/10
f 19/30/10 24/29/10 20/28/10 23/27/10
f 3/4/1 4/3/1 17/3/1 18/4/1
f 7/7/9 9/15/9 23/15/9 22/7/9
f 8/8/3 7/7/3 22/7/3 21/8/3
f 11/6/2 12/19/2 20/19/2 24/6/2
f 10/22/9 3/21/9 18/21/9 19/22/9
